Patient4_TMGait_0pt6_01_left_25_EMG.mot
version=1
nRows=26
nColumns=33
inDegrees=no
endheader
time	1LAddLong	2LGlutMax	3LGlutMed	4LIliopsoas	5LSemiMemb	6LBicFemLong	7LRecFem	8LVastMed	9LVastLat	10LGasMed	11LTibAnt	12lTibPost	13LPeroneusLong	14LSol	15LExtDigLong	16LFlexDigLong	17RAddLong	18RGlutMax	19RGlutMed	20RIliopsoas	21RSemiMemb	22RBicFemLong	23RRecFem	24RVastMed	25RVastLat	26RGasMed	27RTibAnt	28RTibPost	29RPeroneusLong	30RSol	31RExtDigLong	32RFlexDigLong
30.42	0.015869	0.15839	0.039063	0.001526	-0.006409	-0.010834	-0.006714	0.001984	0.23544	-0.045319	0.081024	-0.005341	-0.006256	-0.096436	-0.026093	0.008698	-0.049896	0.52124	-0.024261	0.1355	0.031891	-0.12482	-0.11154	0.005341	-0.028687	0.073853	1.0402	0.019379	-0.10101	-0.30182	0	0.001984
30.421	0.023956	0.13733	0.009918	0.007019	-0.037079	-0.037537	-0.014191	0.007782	0.23102	-0.016632	0.11276	-0.00412	-0.016937	-0.25864	0.011444	-0.00061	-0.019226	0.43701	-0.011292	0.068665	-0.010681	-0.11932	-0.16235	-0.014954	0.063477	0.054932	-0.15137	-0.010223	0.11688	-0.091858	0.00061	0.000153
30.422	0.022583	0.11414	-0.00412	0.02121	0.002594	-0.03952	-0.002289	0.000763	0.22644	0.017853	0.11536	-0.005798	0.004578	-0.37735	0.015411	-0.007477	-0.00824	0.43488	-0.037842	-0.013123	0.058136	-0.048523	-0.19134	-0.053406	0.15686	0.022583	-0.32196	0.003662	0.14145	0.16739	-0.002899	-0.00824
30.423	0.016327	0.11307	-0.019684	0.018616	0.011902	-0.005493	-0.001068	0.002594	0.22232	0.005646	-0.016327	0.001221	-0.00351	-0.36438	0.050659	-0.020599	0.010834	0.41229	0.17105	-0.003815	0.13016	-0.018616	-0.10086	-0.041046	0.18127	0.015259	-0.20111	0.03006	0.21515	0.055237	-0.000916	-0.005798
30.424	0.013428	0.064392	-0.034637	0.009155	0.010223	0.003967	-0.003357	0.00824	0.2179	-0.023193	-0.16953	0.000916	0.017853	-0.22461	0.082397	-0.014191	0.01297	0.38162	0.006104	-0.012817	0.019226	0.034485	0.11002	0.024261	0.12863	-0.037994	-0.35034	-0.005798	0.2214	-0.083923	-0.001678	0.001221
30.425	0.010376	0.075684	-0.061646	-0.000305	-0.02182	-0.040131	0.011444	0.009308	0.20844	-0.058594	-0.07309	-0.000763	0.037384	-0.046387	0.076904	-0.011597	-0.011139	0.44479	-0.085907	0.009003	-0.085449	0.17578	-0.088196	-0.028381	0.1178	-0.098572	-0.42099	-0.036163	0.068512	0.021515	-0.001373	-0.005188
30.426	0.008087	0.041046	-0.084839	0.011292	-0.054169	-0.070801	-0.001831	0.004578	0.1915	-0.073853	-0.033722	-0.000305	0.059662	0.074921	0.058746	0.003967	0.010986	0.27222	-0.080566	-0.024567	-0.23865	0.30701	-0.073395	-0.036621	0.089569	-0.11475	-0.14313	-0.058441	-0.22049	0.1889	-0.005798	-0.000916
30.427	0.007477	0.02533	-0.11078	0.009308	-0.027771	-0.043182	0.016785	0.006866	0.1799	-0.049591	0.001526	-0.004425	0.097656	0.092773	0.047302	-0.002899	0.022583	0.20569	0.045166	-0.055389	-0.20462	0.17242	0.014954	-0.000916	0.052948	-0.12375	0.26443	-0.0383	-0.10773	0.080566	0.002136	-0.001831
30.428	0.013428	-0.049286	-0.10254	0.007935	-0.002441	-0.034943	0.005188	0.004578	0.18066	0.00061	0.001526	-0.000305	0.1358	-0.010986	0.015259	0.002289	-0.005188	0.17303	0.17197	-0.059662	0.093079	0.13657	0.020905	-0.004425	0.036926	-0.11627	0.36713	-0.035095	0.063019	-0.28168	0.002747	-0.015259
30.429	0.019684	-0.072937	-0.070801	0.008392	-0.010834	-0.045929	0.010376	0.007019	0.17746	0.039368	0.00824	-0.001068	0.14374	-0.18066	-0.027771	-0.008087	-0.011902	0.23407	0.22385	-0.049286	0.16983	0.054169	0.096588	-0.041046	0.031586	-0.019379	0.28854	-0.41397	0.11261	-0.19867	0.001831	-0.023804
30.43	0.01297	-0.10101	-0.009003	0.003204	-0.001831	-0.057526	0.004425	-0.002441	0.17838	0.042114	0.012512	-0.00473	0.10315	-0.16892	-0.042725	-0.00351	0.001831	0.25253	0.31708	0.007019	-0.058289	0.006256	0.041504	-0.07431	0.0383	-0.012512	0.22385	0.037689	0.20462	-0.18967	-0.015717	-0.011749
30.431	0.02182	-0.16663	-0.004425	0.008392	0.027161	-0.028381	0.021515	0.00824	0.15457	0.010986	0.015259	0.001831	0.020142	-0.10361	-0.033264	-0.009003	0.000458	0.16998	0.040894	0.013123	-0.062408	0.033417	-0.044403	0.001678	0.074463	-0.049744	0.069427	0.10223	0.23834	-0.2388	0.003204	-0.019226
30.432	0.010223	-0.21576	-0.014343	0.003357	0.033722	-0.037994	0.005035	0.007019	0.1561	-0.027161	0.024567	0.002441	0.007172	-0.12054	0.000305	-0.002136	0.001526	-0.007019	-0.14267	0.043335	-0.039825	0.11368	-0.033875	0.002747	0.070496	-0.099792	-0.02121	0.063171	-0.73044	-0.38406	0.001221	-0.008392
30.433	0.017395	-0.2301	-0.011444	0.009003	0.013275	-0.027924	0.0177	0.008545	0.15381	-0.043945	0.0354	0.008392	0.019226	-0.10498	0.013428	-0.008392	-0.017548	-0.040741	-0.06073	0.031433	0.07309	0.22644	-0.018463	0.038605	0.050201	-0.16357	-0.062256	0.12756	-0.45151	-0.4538	-0.00473	-0.007019
30.434	0.012817	-0.20081	0.011749	-0.002289	-0.003662	-0.014343	0.018158	0.010071	0.14786	-0.072174	0.022125	0.006104	0.081177	0.016327	0.018921	-0.002899	-0.023956	0.004425	0.15457	-0.007629	-0.022583	0.21774	-0.034027	0.10925	0.046387	-0.050659	-0.046539	-0.032349	0.042877	-0.22614	0.003052	-0.000916
30.435	0.00473	-0.20279	0.026855	0.000916	0.013123	-0.010529	0.030212	0.005341	0.14725	-0.055237	0.019684	0.001678	0.09613	0.049286	0.027008	-0.010223	-0.023956	-0.036316	0.15396	0.020599	0.12085	0.11887	-0.069427	0.072021	0.012512	0.077362	0.017395	0.10773	0.041199	0.70206	-0.000305	-0.010071
30.436	0.008545	-0.23224	-0.005646	0.010071	0.032349	-0.009613	0.01297	0.004425	0.13687	-0.038147	0.012665	0.003052	0.14984	0.065765	0.018311	-0.001678	0.005341	-0.029449	0.14908	0.008545	0.15213	0.070038	-0.06958	-0.005341	-0.006256	0.2182	0.038605	0.042877	0.37582	0.59723	-0.000763	-0.004883
30.437	0.016022	-0.19669	-0.048065	0.028076	0.011444	-0.026093	0.011597	0.002594	0.14252	-0.022888	0.016785	0.001526	0.24017	0.029907	0.014343	-0.007935	0.00061	-0.086212	0.061798	0.02533	0.057831	0.020142	-0.050049	-0.029755	0.001526	0.12619	0.075531	-0.071716	0.13718	-0.091705	-0.002594	-0.011902
30.438	0.017242	-0.19241	-0.055695	0.011902	-0.075684	-0.031281	0.008698	0.006104	0.13641	-0.032806	0.00946	-0.006104	0.19577	0.029297	0.017548	-0.005188	0.004272	-0.1062	-0.022125	0.03891	-0.011444	-0.14328	-0.05127	-0.010071	0.003052	0.03952	0.11047	0.052032	-0.052948	-0.046997	-0.001831	-0.00351
30.439	0.030212	-0.18188	-0.005951	0.010071	-0.051117	-0.032654	0.000458	0.006561	0.13214	-0.033722	-0.002289	0.003662	0.044708	0.075684	0.003357	0.013275	0.018921	-0.032806	0.17792	0.040131	0.041046	-0.38483	-0.062866	-0.054321	0.018768	0.042725	0.13626	-0.009918	-0.1178	0.40131	-0.00061	-0.002289
30.44	0.012207	-0.14755	0.005646	0.00946	0.030365	-0.032959	-0.003204	0.001831	0.13534	-0.048828	0.00824	-0.001068	-0.042572	0.11169	0.003052	-0.002289	0.013885	-0.043335	0.1738	0.019379	0.064545	-0.42084	-0.035095	-0.061035	0.03067	0.018616	0.10986	-0.019684	-0.14725	0.51468	-0.001678	-0.005035
30.441	0.011292	-0.15228	-0.050812	0.00473	0.055237	-0.032806	0.019073	0.006104	0.1297	-0.096893	0.013275	0.006256	-0.093384	0.097961	0.001831	0.000458	0.010071	-0.0737	0.14786	-0.058136	-0.029297	-0.26398	-0.00351	-0.058899	0.000916	0.033264	0.12466	-0.023041	-0.076752	0.67749	-0.001831	-0.000305
30.442	0.02243	-0.13412	-0.072784	0.006104	0.040588	-0.02655	0.002136	0.002441	0.13077	-0.10437	0.014801	0.00351	-0.066833	0.072632	-0.012054	-0.003815	0.016632	-0.12253	0.18188	-0.092468	-0.35095	-0.025787	-0.007324	0.016479	0.009308	0.050507	0.24216	-0.014191	0.059967	0.52277	-0.00473	0.002289
30.443	0.011139	-0.10803	-0.075378	0.009918	0.039368	-0.031433	0.004425	0.005798	0.12177	-0.046844	0.013733	0.004425	0.023651	0.023499	-0.010223	0.010376	0.012207	-0.11505	0.18631	-0.072784	-0.24094	-0.070953	0.005341	-0.028076	-0.012665	0.038757	0.41489	0.053253	0.070953	0.061035	-0.001373	0.004272
30.444	0.013123	-0.062714	-0.10132	0.008545	0.039368	-0.033875	-0.000916	0.004883	0.12222	0.004272	0.011597	0.00473	0.10468	-0.020294	-0.000458	0.005188	0.020447	-0.14191	0.10483	0.058594	0.041199	-0.17609	0.054474	-0.037994	-0.052185	0.022736	0.55695	0.034637	-0.22522	-0.26886	0.000153	-0.010986
30.445	0.012207	-0.046844	-0.080872	-0.003052	0.029144	-0.010986	0.015411	0.007019	0.12817	0.028381	0.00885	0.008087	0.048981	-0.047607	-0.00061	-0.001221	-0.003815	-0.21454	0.11978	0.17609	0.11276	-0.15015	0.21133	0.012512	-0.096741	-0.013428	0.53833	-0.034332	-0.1532	-0.44968	-0.005035	-0.009918
